<svg width="400" height="2" viewBox="0 0 400 2" fill="none" xmlns="http://www.w3.org/2000/svg">
<g clip-path="url(#clip0_14_2)">
<rect width="2" height="2" rx="1" fill="black" fill-opacity="0.2"/>
<rect x="4.0202" width="2" height="2" rx="1" fill="black" fill-opacity="0.2"/>
<rect x="8.04041" width="2" height="2" rx="1" fill="black" fill-opacity="0.2"/>
<rect x="12.0606" width="2" height="2" rx="1" fill="black" fill-opacity="0.2"/>
<rect x="16.0808" width="2" height="2" rx="1" fill="black" fill-opacity="0.2"/>
<rect x="20.101" width="2" height="2" rx="1" fill="black" fill-opacity="0.2"/>
<rect x="24.1212" width="2" height="2" rx="1" fill="black" fill-opacity="0.2"/>
<rect x="28.1414" width="2" height="2" rx="1" fill="black" fill-opacity="0.2"/>
<rect x="32.1616" width="2" height="2" rx="1" fill="black" fill-opacity="0.2"/>
<rect x="36.1818" width="2" height="2" rx="1" fill="black" fill-opacity="0.2"/>
<rect x="40.202" width="2" height="2" rx="1" fill="black" fill-opacity="0.2"/>
<rect x="44.2222" width="2" height="2" rx="1" fill="black" fill-opacity="0.2"/>
<rect x="48.2424" width="2" height="2" rx="1" fill="black" fill-opacity="0.2"/>
<rect x="52.2626" width="2" height="2" rx="1" fill="black" fill-opacity="0.2"/>
<rect x="56.2828" width="2" height="2" rx="1" fill="black" fill-opacity="0.2"/>
<rect x="60.303" width="2" height="2" rx="1" fill="black" fill-opacity="0.2"/>
<rect x="64.3232" width="2" height="2" rx="1" fill="black" fill-opacity="0.2"/>
<rect x="68.3434" width="2" height="2" rx="1" fill="black" fill-opacity="0.2"/>
<rect x="72.3636" width="2" height="2" rx="1" fill="black" fill-opacity="0.2"/>
<rect x="76.3839" width="2" height="2" rx="1" fill="black" fill-opacity="0.2"/>
<rect x="80.4041" width="2" height="2" rx="1" fill="black" fill-opacity="0.2"/>
<rect x="84.4243" width="2" height="2" rx="1" fill="black" fill-opacity="0.2"/>
<rect x="88.4445" width="2" height="2" rx="1" fill="black" fill-opacity="0.2"/>
<rect x="92.4647" width="2" height="2" rx="1" fill="black" fill-opacity="0.2"/>
<rect x="96.4849" width="2" height="2" rx="1" fill="black" fill-opacity="0.2"/>
<rect x="100.505" width="2" height="2" rx="1" fill="black" fill-opacity="0.2"/>
<rect x="104.525" width="2" height="2" rx="1" fill="black" fill-opacity="0.2"/>
<rect x="108.545" width="2" height="2" rx="1" fill="black" fill-opacity="0.2"/>
<rect x="112.566" width="2" height="2" rx="1" fill="black" fill-opacity="0.2"/>
<rect x="116.586" width="2" height="2" rx="1" fill="black" fill-opacity="0.2"/>
<rect x="120.606" width="2" height="2" rx="1" fill="black" fill-opacity="0.2"/>
<rect x="124.626" width="2" height="2" rx="1" fill="black" fill-opacity="0.2"/>
<rect x="128.646" width="2" height="2" rx="1" fill="black" fill-opacity="0.2"/>
<rect x="132.667" width="2" height="2" rx="1" fill="black" fill-opacity="0.2"/>
<rect x="136.687" width="2" height="2" rx="1" fill="black" fill-opacity="0.2"/>
<rect x="140.707" width="2" height="2" rx="1" fill="black" fill-opacity="0.2"/>
<rect x="144.727" width="2" height="2" rx="1" fill="black" fill-opacity="0.2"/>
<rect x="148.747" width="2" height="2" rx="1" fill="black" fill-opacity="0.2"/>
<rect x="152.768" width="2" height="2" rx="1" fill="black" fill-opacity="0.2"/>
<rect x="156.788" width="2" height="2" rx="1" fill="black" fill-opacity="0.2"/>
<rect x="160.808" width="2" height="2" rx="1" fill="black" fill-opacity="0.2"/>
<rect x="164.828" width="2" height="2" rx="1" fill="black" fill-opacity="0.2"/>
<rect x="168.849" width="2" height="2" rx="1" fill="black" fill-opacity="0.2"/>
<rect x="172.869" width="2" height="2" rx="1" fill="black" fill-opacity="0.2"/>
<rect x="176.889" width="2" height="2" rx="1" fill="black" fill-opacity="0.2"/>
<rect x="180.909" width="2" height="2" rx="1" fill="black" fill-opacity="0.2"/>
<rect x="184.929" width="2" height="2" rx="1" fill="black" fill-opacity="0.2"/>
<rect x="188.95" width="2" height="2" rx="1" fill="black" fill-opacity="0.2"/>
<rect x="192.97" width="2" height="2" rx="1" fill="black" fill-opacity="0.2"/>
<rect x="196.99" width="2" height="2" rx="1" fill="black" fill-opacity="0.2"/>
<rect x="201.01" width="2" height="2" rx="1" fill="black" fill-opacity="0.2"/>
<rect x="205.03" width="2" height="2" rx="1" fill="black" fill-opacity="0.2"/>
<rect x="209.051" width="2" height="2" rx="1" fill="black" fill-opacity="0.2"/>
<rect x="213.071" width="2" height="2" rx="1" fill="black" fill-opacity="0.2"/>
<rect x="217.091" width="2" height="2" rx="1" fill="black" fill-opacity="0.2"/>
<rect x="221.111" width="2" height="2" rx="1" fill="black" fill-opacity="0.2"/>
<rect x="225.131" width="2" height="2" rx="1" fill="black" fill-opacity="0.2"/>
<rect x="229.152" width="2" height="2" rx="1" fill="black" fill-opacity="0.2"/>
<rect x="233.172" width="2" height="2" rx="1" fill="black" fill-opacity="0.2"/>
<rect x="237.192" width="2" height="2" rx="1" fill="black" fill-opacity="0.2"/>
<rect x="241.212" width="2" height="2" rx="1" fill="black" fill-opacity="0.2"/>
<rect x="245.232" width="2" height="2" rx="1" fill="black" fill-opacity="0.2"/>
<rect x="249.253" width="2" height="2" rx="1" fill="black" fill-opacity="0.2"/>
<rect x="253.273" width="2" height="2" rx="1" fill="black" fill-opacity="0.2"/>
<rect x="257.293" width="2" height="2" rx="1" fill="black" fill-opacity="0.2"/>
<rect x="261.313" width="2" height="2" rx="1" fill="black" fill-opacity="0.2"/>
<rect x="265.333" width="2" height="2" rx="1" fill="black" fill-opacity="0.2"/>
<rect x="269.354" width="2" height="2" rx="1" fill="black" fill-opacity="0.2"/>
<rect x="273.374" width="2" height="2" rx="1" fill="black" fill-opacity="0.2"/>
<rect x="277.394" width="2" height="2" rx="1" fill="black" fill-opacity="0.2"/>
<rect x="281.414" width="2" height="2" rx="1" fill="black" fill-opacity="0.2"/>
<rect x="285.434" width="2" height="2" rx="1" fill="black" fill-opacity="0.2"/>
<rect x="289.455" width="2" height="2" rx="1" fill="black" fill-opacity="0.2"/>
<rect x="293.475" width="2" height="2" rx="1" fill="black" fill-opacity="0.2"/>
<rect x="297.495" width="2" height="2" rx="1" fill="black" fill-opacity="0.2"/>
<rect x="301.515" width="2" height="2" rx="1" fill="black" fill-opacity="0.2"/>
<rect x="305.535" width="2" height="2" rx="1" fill="black" fill-opacity="0.2"/>
<rect x="309.556" width="2" height="2" rx="1" fill="black" fill-opacity="0.2"/>
<rect x="313.576" width="2" height="2" rx="1" fill="black" fill-opacity="0.2"/>
<rect x="317.596" width="2" height="2" rx="1" fill="black" fill-opacity="0.2"/>
<rect x="321.616" width="2" height="2" rx="1" fill="black" fill-opacity="0.2"/>
<rect x="325.636" width="2" height="2" rx="1" fill="black" fill-opacity="0.2"/>
<rect x="329.657" width="2" height="2" rx="1" fill="black" fill-opacity="0.2"/>
<rect x="333.677" width="2" height="2" rx="1" fill="black" fill-opacity="0.2"/>
<rect x="337.697" width="2" height="2" rx="1" fill="black" fill-opacity="0.2"/>
<rect x="341.717" width="2" height="2" rx="1" fill="black" fill-opacity="0.2"/>
<rect x="345.737" width="2" height="2" rx="1" fill="black" fill-opacity="0.2"/>
<rect x="349.758" width="2" height="2" rx="1" fill="black" fill-opacity="0.2"/>
<rect x="353.778" width="2" height="2" rx="1" fill="black" fill-opacity="0.2"/>
<rect x="357.798" width="2" height="2" rx="1" fill="black" fill-opacity="0.2"/>
<rect x="361.818" width="2" height="2" rx="1" fill="black" fill-opacity="0.2"/>
<rect x="365.838" width="2" height="2" rx="1" fill="black" fill-opacity="0.2"/>
<rect x="369.859" width="2" height="2" rx="1" fill="black" fill-opacity="0.2"/>
<rect x="373.879" width="2" height="2" rx="1" fill="black" fill-opacity="0.2"/>
<rect x="377.899" width="2" height="2" rx="1" fill="black" fill-opacity="0.2"/>
<rect x="381.919" width="2" height="2" rx="1" fill="black" fill-opacity="0.2"/>
<rect x="385.939" width="2" height="2" rx="1" fill="black" fill-opacity="0.2"/>
<rect x="389.96" width="2" height="2" rx="1" fill="black" fill-opacity="0.2"/>
<rect x="393.98" width="2" height="2" rx="1" fill="black" fill-opacity="0.2"/>
<rect x="398" width="2" height="2" rx="1" fill="black" fill-opacity="0.2"/>
</g>
<defs>
<clipPath id="clip0_14_2">
<rect width="400" height="2" rx="1" fill="white"/>
</clipPath>
</defs>
</svg>
