<svg width="500" height="3" viewBox="0 0 500 3" fill="none" xmlns="http://www.w3.org/2000/svg">
<g clip-path="url(#clip0_14_2)">
<rect width="3" height="3" rx="1.5" fill="#CC999C"/>
<rect x="6.37177" width="3" height="3" rx="1.5" fill="#CC999C"/>
<rect x="12.7436" width="3" height="3" rx="1.5" fill="#CC999C"/>
<rect x="19.1154" width="3" height="3" rx="1.5" fill="#CC999C"/>
<rect x="25.4872" width="3" height="3" rx="1.5" fill="#CC999C"/>
<rect x="31.8589" width="3" height="3" rx="1.5" fill="#CC999C"/>
<rect x="38.2308" width="3" height="3" rx="1.5" fill="#CC999C"/>
<rect x="44.6025" width="3" height="3" rx="1.5" fill="#CC999C"/>
<rect x="50.9744" width="3" height="3" rx="1.5" fill="#CC999C"/>
<rect x="57.3461" width="3" height="3" rx="1.5" fill="#CC999C"/>
<rect x="63.718" width="3" height="3" rx="1.5" fill="#CC999C"/>
<rect x="70.0897" width="3" height="3" rx="1.5" fill="#CC999C"/>
<rect x="76.4615" width="3" height="3" rx="1.5" fill="#CC999C"/>
<rect x="82.8333" width="3" height="3" rx="1.5" fill="#CC999C"/>
<rect x="89.2051" width="3" height="3" rx="1.5" fill="#CC999C"/>
<rect x="95.5769" width="3" height="3" rx="1.5" fill="#CC999C"/>
<rect x="101.949" width="3" height="3" rx="1.5" fill="#CC999C"/>
<rect x="108.32" width="3" height="3" rx="1.5" fill="#CC999C"/>
<rect x="114.692" width="3" height="3" rx="1.5" fill="#CC999C"/>
<rect x="121.064" width="3" height="3" rx="1.5" fill="#CC999C"/>
<rect x="127.436" width="3" height="3" rx="1.5" fill="#CC999C"/>
<rect x="133.808" width="3" height="3" rx="1.5" fill="#CC999C"/>
<rect x="140.18" width="3" height="3" rx="1.5" fill="#CC999C"/>
<rect x="146.551" width="3" height="3" rx="1.5" fill="#CC999C"/>
<rect x="152.923" width="3" height="3" rx="1.5" fill="#CC999C"/>
<rect x="159.295" width="3" height="3" rx="1.5" fill="#CC999C"/>
<rect x="165.667" width="3" height="3" rx="1.5" fill="#CC999C"/>
<rect x="172.038" width="3" height="3" rx="1.5" fill="#CC999C"/>
<rect x="178.41" width="3" height="3" rx="1.5" fill="#CC999C"/>
<rect x="184.782" width="3" height="3" rx="1.5" fill="#CC999C"/>
<rect x="191.154" width="3" height="3" rx="1.5" fill="#CC999C"/>
<rect x="197.526" width="3" height="3" rx="1.5" fill="#CC999C"/>
<rect x="203.897" width="3" height="3" rx="1.5" fill="#CC999C"/>
<rect x="210.269" width="3" height="3" rx="1.5" fill="#CC999C"/>
<rect x="216.641" width="3" height="3" rx="1.5" fill="#CC999C"/>
<rect x="223.013" width="3" height="3" rx="1.5" fill="#CC999C"/>
<rect x="229.385" width="3" height="3" rx="1.5" fill="#CC999C"/>
<rect x="235.756" width="3" height="3" rx="1.5" fill="#CC999C"/>
<rect x="242.128" width="3" height="3" rx="1.5" fill="#CC999C"/>
<rect x="248.5" width="3" height="3" rx="1.5" fill="#CC999C"/>
<rect x="254.872" width="3" height="3" rx="1.5" fill="#CC999C"/>
<rect x="261.244" width="3" height="3" rx="1.5" fill="#CC999C"/>
<rect x="267.615" width="3" height="3" rx="1.5" fill="#CC999C"/>
<rect x="273.987" width="3" height="3" rx="1.5" fill="#CC999C"/>
<rect x="280.359" width="3" height="3" rx="1.5" fill="#CC999C"/>
<rect x="286.731" width="3" height="3" rx="1.5" fill="#CC999C"/>
<rect x="293.103" width="3" height="3" rx="1.5" fill="#CC999C"/>
<rect x="299.474" width="3" height="3" rx="1.5" fill="#CC999C"/>
<rect x="305.846" width="3" height="3" rx="1.5" fill="#CC999C"/>
<rect x="312.218" width="3" height="3" rx="1.5" fill="#CC999C"/>
<rect x="318.59" width="3" height="3" rx="1.5" fill="#CC999C"/>
<rect x="324.962" width="3" height="3" rx="1.5" fill="#CC999C"/>
<rect x="331.333" width="3" height="3" rx="1.5" fill="#CC999C"/>
<rect x="337.705" width="3" height="3" rx="1.5" fill="#CC999C"/>
<rect x="344.077" width="3" height="3" rx="1.5" fill="#CC999C"/>
<rect x="350.449" width="3" height="3" rx="1.5" fill="#CC999C"/>
<rect x="356.821" width="3" height="3" rx="1.5" fill="#CC999C"/>
<rect x="363.192" width="3" height="3" rx="1.5" fill="#CC999C"/>
<rect x="369.564" width="3" height="3" rx="1.5" fill="#CC999C"/>
<rect x="375.936" width="3" height="3" rx="1.5" fill="#CC999C"/>
<rect x="382.308" width="3" height="3" rx="1.5" fill="#CC999C"/>
<rect x="388.679" width="3" height="3" rx="1.5" fill="#CC999C"/>
<rect x="395.051" width="3" height="3" rx="1.5" fill="#CC999C"/>
<rect x="401.423" width="3" height="3" rx="1.5" fill="#CC999C"/>
<rect x="407.795" width="3" height="3" rx="1.5" fill="#CC999C"/>
<rect x="414.167" width="3" height="3" rx="1.5" fill="#CC999C"/>
<rect x="420.538" width="3" height="3" rx="1.5" fill="#CC999C"/>
<rect x="426.91" width="3" height="3" rx="1.5" fill="#CC999C"/>
<rect x="433.282" width="3" height="3" rx="1.5" fill="#CC999C"/>
<rect x="439.654" width="3" height="3" rx="1.5" fill="#CC999C"/>
<rect x="446.026" width="3" height="3" rx="1.5" fill="#CC999C"/>
<rect x="452.397" width="3" height="3" rx="1.5" fill="#CC999C"/>
<rect x="458.769" width="3" height="3" rx="1.5" fill="#CC999C"/>
<rect x="465.141" width="3" height="3" rx="1.5" fill="#CC999C"/>
<rect x="471.513" width="3" height="3" rx="1.5" fill="#CC999C"/>
<rect x="477.885" width="3" height="3" rx="1.5" fill="#CC999C"/>
<rect x="484.256" width="3" height="3" rx="1.5" fill="#CC999C"/>
<rect x="490.628" width="3" height="3" rx="1.5" fill="#CC999C"/>
<rect x="497" width="3" height="3" rx="1.5" fill="#CC999C"/>
</g>
<defs>
<clipPath id="clip0_14_2">
<rect width="500" height="3" rx="1.5" fill="white"/>
</clipPath>
</defs>
</svg>
