<svg width="20" height="20" viewBox="0 0 20 20" fill="none" xmlns="http://www.w3.org/2000/svg">
<path fill-rule="evenodd" clip-rule="evenodd" d="M7.33337 11.6668C7.88566 11.6668 8.33337 12.1145 8.33337 12.6668V19C8.33337 19.5523 8.78109 20 9.33337 20H10.6667C11.219 20 11.6667 19.5523 11.6667 19V12.6668C11.6667 12.1145 12.1144 11.6668 12.6667 11.6668H19C19.5523 11.6668 20 11.2191 20 10.6668V9.3335C20 8.78121 19.5523 8.3335 19 8.3335H12.6667C12.1144 8.3335 11.6667 7.88578 11.6667 7.3335V1C11.6667 0.447715 11.219 0 10.6667 0H9.33337C8.78109 0 8.33337 0.447715 8.33337 1V7.3335C8.33337 7.88578 7.88566 8.3335 7.33337 8.3335H1C0.447715 8.3335 0 8.78121 0 9.3335V10.6668C0 11.2191 0.447715 11.6668 1 11.6668H7.33337Z" fill="black"/>
</svg>
