<svg width="500" height="2" viewBox="0 0 500 2" fill="none" xmlns="http://www.w3.org/2000/svg">
<g clip-path="url(#clip0_14_2)">
<rect width="2" height="2" rx="1" fill="#CC999C"/>
<rect x="7.11426" width="2" height="2" rx="1" fill="#CC999C"/>
<rect x="14.2286" width="2" height="2" rx="1" fill="#CC999C"/>
<rect x="21.3428" width="2" height="2" rx="1" fill="#CC999C"/>
<rect x="28.4572" width="2" height="2" rx="1" fill="#CC999C"/>
<rect x="35.5714" width="2" height="2" rx="1" fill="#CC999C"/>
<rect x="42.6857" width="2" height="2" rx="1" fill="#CC999C"/>
<rect x="49.8" width="2" height="2" rx="1" fill="#CC999C"/>
<rect x="56.9143" width="2" height="2" rx="1" fill="#CC999C"/>
<rect x="64.0286" width="2" height="2" rx="1" fill="#CC999C"/>
<rect x="71.1429" width="2" height="2" rx="1" fill="#CC999C"/>
<rect x="78.2571" width="2" height="2" rx="1" fill="#CC999C"/>
<rect x="85.3715" width="2" height="2" rx="1" fill="#CC999C"/>
<rect x="92.4857" width="2" height="2" rx="1" fill="#CC999C"/>
<rect x="99.6" width="2" height="2" rx="1" fill="#CC999C"/>
<rect x="106.714" width="2" height="2" rx="1" fill="#CC999C"/>
<rect x="113.829" width="2" height="2" rx="1" fill="#CC999C"/>
<rect x="120.943" width="2" height="2" rx="1" fill="#CC999C"/>
<rect x="128.057" width="2" height="2" rx="1" fill="#CC999C"/>
<rect x="135.171" width="2" height="2" rx="1" fill="#CC999C"/>
<rect x="142.286" width="2" height="2" rx="1" fill="#CC999C"/>
<rect x="149.4" width="2" height="2" rx="1" fill="#CC999C"/>
<rect x="156.514" width="2" height="2" rx="1" fill="#CC999C"/>
<rect x="163.629" width="2" height="2" rx="1" fill="#CC999C"/>
<rect x="170.743" width="2" height="2" rx="1" fill="#CC999C"/>
<rect x="177.857" width="2" height="2" rx="1" fill="#CC999C"/>
<rect x="184.971" width="2" height="2" rx="1" fill="#CC999C"/>
<rect x="192.086" width="2" height="2" rx="1" fill="#CC999C"/>
<rect x="199.2" width="2" height="2" rx="1" fill="#CC999C"/>
<rect x="206.314" width="2" height="2" rx="1" fill="#CC999C"/>
<rect x="213.429" width="2" height="2" rx="1" fill="#CC999C"/>
<rect x="220.543" width="2" height="2" rx="1" fill="#CC999C"/>
<rect x="227.657" width="2" height="2" rx="1" fill="#CC999C"/>
<rect x="234.771" width="2" height="2" rx="1" fill="#CC999C"/>
<rect x="241.886" width="2" height="2" rx="1" fill="#CC999C"/>
<rect x="249" width="2" height="2" rx="1" fill="#CC999C"/>
<rect x="256.114" width="2" height="2" rx="1" fill="#CC999C"/>
<rect x="263.229" width="2" height="2" rx="1" fill="#CC999C"/>
<rect x="270.343" width="2" height="2" rx="1" fill="#CC999C"/>
<rect x="277.457" width="2" height="2" rx="1" fill="#CC999C"/>
<rect x="284.572" width="2" height="2" rx="1" fill="#CC999C"/>
<rect x="291.686" width="2" height="2" rx="1" fill="#CC999C"/>
<rect x="298.8" width="2" height="2" rx="1" fill="#CC999C"/>
<rect x="305.914" width="2" height="2" rx="1" fill="#CC999C"/>
<rect x="313.029" width="2" height="2" rx="1" fill="#CC999C"/>
<rect x="320.143" width="2" height="2" rx="1" fill="#CC999C"/>
<rect x="327.257" width="2" height="2" rx="1" fill="#CC999C"/>
<rect x="334.372" width="2" height="2" rx="1" fill="#CC999C"/>
<rect x="341.486" width="2" height="2" rx="1" fill="#CC999C"/>
<rect x="348.6" width="2" height="2" rx="1" fill="#CC999C"/>
<rect x="355.714" width="2" height="2" rx="1" fill="#CC999C"/>
<rect x="362.829" width="2" height="2" rx="1" fill="#CC999C"/>
<rect x="369.943" width="2" height="2" rx="1" fill="#CC999C"/>
<rect x="377.057" width="2" height="2" rx="1" fill="#CC999C"/>
<rect x="384.172" width="2" height="2" rx="1" fill="#CC999C"/>
<rect x="391.286" width="2" height="2" rx="1" fill="#CC999C"/>
<rect x="398.4" width="2" height="2" rx="1" fill="#CC999C"/>
<rect x="405.514" width="2" height="2" rx="1" fill="#CC999C"/>
<rect x="412.629" width="2" height="2" rx="1" fill="#CC999C"/>
<rect x="419.743" width="2" height="2" rx="1" fill="#CC999C"/>
<rect x="426.857" width="2" height="2" rx="1" fill="#CC999C"/>
<rect x="433.972" width="2" height="2" rx="1" fill="#CC999C"/>
<rect x="441.086" width="2" height="2" rx="1" fill="#CC999C"/>
<rect x="448.2" width="2" height="2" rx="1" fill="#CC999C"/>
<rect x="455.314" width="2" height="2" rx="1" fill="#CC999C"/>
<rect x="462.429" width="2" height="2" rx="1" fill="#CC999C"/>
<rect x="469.543" width="2" height="2" rx="1" fill="#CC999C"/>
<rect x="476.657" width="2" height="2" rx="1" fill="#CC999C"/>
<rect x="483.772" width="2" height="2" rx="1" fill="#CC999C"/>
<rect x="490.886" width="2" height="2" rx="1" fill="#CC999C"/>
<rect x="498" width="2" height="2" rx="1" fill="#CC999C"/>
</g>
<defs>
<clipPath id="clip0_14_2">
<rect width="500" height="2" rx="1" fill="white"/>
</clipPath>
</defs>
</svg>
